<svg xmlns="http://www.w3.org/2000/svg" xmlns:xlink="http://www.w3.org/1999/xlink" width="80" height="80" viewBox="0, 0, 400,400"><g><path d="M174.219 1.228 C 8.875 22.436,-59.238 226.958,60.266 343.392 C 87.702 370.124,132.680 394.619,144.930 389.500 C 150.459 387.190,150.775 385.749,150.778 362.808 L 150.781 342.413 144.727 343.530 C 114.148 349.175,93.445 339.992,81.380 315.433 C 74.901 302.246,69.884 295.808,61.715 290.198 C 50.347 282.392,50.621 278.347,62.500 278.622 C 73.190 278.871,83.703 286.246,92.972 300.000 C 102.809 314.597,113.084 320.596,128.125 320.524 C 139.471 320.469,151.562 316.855,151.563 313.519 C 151.563 308.098,156.720 296.620,161.573 291.242 C 164.602 287.885,165.257 288.295,154.297 286.692 C 108.457 279.990,82.087 256.222,75.016 215.234 C 69.794 184.970,74.069 161.355,88.133 142.774 C 90.240 139.990,92.212 137.311,92.515 136.820 C 92.819 136.329,92.283 132.853,91.325 129.096 C 88.324 117.329,88.988 102.834,93.123 89.844 C 95.448 82.540,95.461 82.530,102.199 83.099 C 112.494 83.970,129.484 90.910,143.843 100.111 L 149.795 103.925 157.905 101.994 C 184.110 95.755,216.058 95.751,242.095 101.984 L 250.205 103.925 256.217 100.069 C 277.403 86.478,302.215 79.043,305.294 85.362 C 310.314 95.667,311.926 116.455,308.684 129.096 C 307.721 132.853,307.181 136.329,307.485 136.820 C 307.788 137.311,309.760 139.990,311.867 142.774 C 325.931 161.355,330.206 184.970,324.984 215.234 C 317.709 257.402,288.651 282.315,241.055 287.191 C 235.057 287.806,235.155 287.617,238.755 291.601 C 247.857 301.676,249.216 309.284,249.230 350.246 C 249.243 385.498,249.246 385.529,253.231 388.487 C 258.512 392.407,267.035 390.277,288.734 379.616 C 364.932 342.178,409.287 259.734,398.801 175.032 C 385.222 65.349,284.148 -12.872,174.219 1.228 M217.209 145.118 C 214.282 146.592,214.420 146.367,189.095 191.016 C 182.515 202.617,174.721 216.354,171.776 221.543 C 164.321 234.678,164.219 239.366,171.332 242.080 C 178.047 244.641,176.268 247.092,206.981 192.969 C 214.418 179.863,222.198 166.152,224.271 162.500 C 230.062 152.297,229.954 147.431,223.881 144.894 C 220.466 143.467,220.491 143.466,217.209 145.118 M141.016 162.041 C 139.727 162.614,136.577 165.325,134.017 168.065 C 131.457 170.805,125.569 176.975,120.931 181.775 C 115.565 187.331,112.500 191.111,112.500 192.173 C 112.500 193.091,112.148 193.625,111.719 193.359 C 111.289 193.094,110.938 193.228,110.938 193.658 C 110.938 194.087,111.244 194.628,111.618 194.860 C 111.992 195.091,112.513 196.254,112.776 197.445 C 113.081 198.825,118.174 204.702,126.838 213.672 L 140.421 227.734 144.103 227.734 C 149.174 227.734,152.344 224.381,152.344 219.015 C 152.344 215.500,152.129 215.176,144.722 207.504 C 140.530 203.162,136.090 198.488,134.855 197.118 L 132.611 194.626 142.477 184.077 C 151.972 173.925,152.344 173.401,152.344 170.141 C 152.344 163.422,146.810 159.465,141.016 162.041 M251.026 162.461 C 243.616 166.980,244.745 171.251,256.741 184.077 L 266.608 194.626 264.364 197.118 C 263.129 198.488,258.689 203.162,254.497 207.504 C 247.090 215.176,246.875 215.500,246.875 219.015 C 246.875 224.381,250.044 227.734,255.116 227.734 L 258.798 227.734 272.381 213.672 C 281.045 204.702,286.138 198.825,286.443 197.445 C 286.705 196.254,287.227 195.091,287.601 194.860 C 287.975 194.628,288.281 194.087,288.281 193.658 C 288.281 193.228,287.930 193.094,287.500 193.359 C 287.070 193.625,286.719 193.091,286.719 192.173 C 286.719 191.111,283.654 187.331,278.287 181.775 C 273.650 176.975,267.761 170.804,265.201 168.064 C 258.680 161.082,255.409 159.789,251.026 162.461" stroke="none" fill="#000000" fill-rule="evenodd"></path></g></svg>
